<svg width="10" height="11" viewBox="0 0 10 11" fill="none" xmlns="http://www.w3.org/2000/svg">
<path d="M5 10.5C2.24286 10.5 0 8.25714 0 5.5C0 2.74286 2.24286 0.5 5 0.5C7.75714 0.5 10 2.74286 10 5.5C10 8.25714 7.75714 10.5 5 10.5ZM5 1.21429C2.63571 1.21429 0.714286 3.13571 0.714286 5.5C0.714286 7.86429 2.63571 9.78571 5 9.78571C7.36429 9.78571 9.28571 7.86429 9.28571 5.5C9.28571 3.13571 7.36429 1.21429 5 1.21429Z" fill="#1EA389"/>
<path d="M6.42851 7.28568C6.36422 7.28568 6.29994 7.27139 6.24279 7.23568L4.45708 6.16425C4.40443 6.1322 4.36097 6.08707 4.33093 6.03325C4.30089 5.97942 4.28529 5.91874 4.28565 5.85711V2.99997C4.28565 2.79997 4.44279 2.64282 4.64279 2.64282C4.84279 2.64282 4.99994 2.79997 4.99994 2.99997V5.65711L6.61422 6.62139C6.68071 6.66215 6.73211 6.72347 6.76061 6.79606C6.78911 6.86865 6.79317 6.94855 6.77218 7.02366C6.75118 7.09876 6.70627 7.16497 6.64425 7.21226C6.58223 7.25954 6.50649 7.28532 6.42851 7.28568Z" fill="#1EA389"/>
</svg>
