<svg width="15" height="15" viewBox="0 0 10 10" fill="none" xmlns="http://www.w3.org/2000/svg">
<path d="M1.45833 6.66667H8.95833C9.03481 6.66662 9.10981 6.64552 9.1751 6.60569C9.24039 6.56585 9.29345 6.50882 9.32848 6.44083C9.3635 6.37284 9.37914 6.29652 9.37368 6.22023C9.36821 6.14395 9.34186 6.07064 9.2975 6.00833L7.38667 3.33333L9.2975 0.658333C9.34186 0.59603 9.36821 0.52272 9.37368 0.446434C9.37914 0.370147 9.3635 0.293829 9.32848 0.22584C9.29345 0.157851 9.24039 0.100814 9.1751 0.0609791C9.10981 0.0211439 9.03481 4.71385e-05 8.95833 0H1.04167C0.93116 0 0.825179 0.0438988 0.747039 0.122039C0.668899 0.200179 0.625 0.30616 0.625 0.416667V9.58333C0.625 9.69384 0.668899 9.79982 0.747039 9.87796C0.825179 9.9561 0.93116 10 1.04167 10C1.15217 10 1.25815 9.9561 1.33629 9.87796C1.41443 9.79982 1.45833 9.69384 1.45833 9.58333V6.66667Z" fill="#FF4747"/>
</svg>
