<svg width="17" height="13" viewBox="0 0 17 13" fill="none" xmlns="http://www.w3.org/2000/svg">
<path d="M16.7506 6.11983C16.097 4.42926 14.9624 2.96725 13.4869 1.9145C12.0115 0.861745 10.2599 0.2644 8.44872 0.196289C6.63749 0.2644 4.88592 0.861745 3.41049 1.9145C1.93506 2.96725 0.800442 4.42926 0.146874 6.11983C0.102735 6.24191 0.102735 6.3756 0.146874 6.49769C0.800442 8.18826 1.93506 9.65027 3.41049 10.703C4.88592 11.7558 6.63749 12.3531 8.44872 12.4212C10.2599 12.3531 12.0115 11.7558 13.4869 10.703C14.9624 9.65027 16.097 8.18826 16.7506 6.49769C16.7947 6.3756 16.7947 6.24191 16.7506 6.11983ZM8.44872 11.3099C5.50362 11.3099 2.39182 9.12605 1.26379 6.30876C2.39182 3.49147 5.50362 1.30765 8.44872 1.30765C11.3938 1.30765 14.5056 3.49147 15.6336 6.30876C14.5056 9.12605 11.3938 11.3099 8.44872 11.3099Z" fill="white"/>
<path d="M8.44882 2.97461C7.7894 2.97461 7.14479 3.17015 6.59651 3.5365C6.04822 3.90286 5.62089 4.42357 5.36854 5.03279C5.11619 5.64201 5.05016 6.31238 5.17881 6.95913C5.30746 7.60588 5.625 8.19995 6.09128 8.66623C6.55755 9.13251 7.15163 9.45005 7.79838 9.57869C8.44512 9.70734 9.11549 9.64131 9.72472 9.38897C10.3339 9.13662 10.8546 8.70928 11.221 8.161C11.5874 7.61271 11.7829 6.9681 11.7829 6.30868C11.7829 5.42443 11.4316 4.5764 10.8064 3.95114C10.1811 3.32588 9.33307 2.97461 8.44882 2.97461ZM8.44882 8.5314C8.00921 8.5314 7.57947 8.40104 7.21395 8.1568C6.84842 7.91257 6.56353 7.56543 6.3953 7.15928C6.22707 6.75313 6.18305 6.30622 6.26881 5.87505C6.35458 5.44389 6.56627 5.04784 6.87712 4.73699C7.18798 4.42613 7.58403 4.21444 8.01519 4.12868C8.44636 4.04291 8.89327 4.08693 9.29942 4.25516C9.70557 4.42339 10.0527 4.70828 10.2969 5.07381C10.5412 5.43933 10.6715 5.86907 10.6715 6.30868C10.6715 6.89818 10.4374 7.46354 10.0205 7.88038C9.60368 8.29722 9.03832 8.5314 8.44882 8.5314Z" fill="white"/>
</svg>
